<svg width="685" height="192" viewBox="0 0 685 192" fill="none" xmlns="http://www.w3.org/2000/svg">
<path fill-rule="evenodd" clip-rule="evenodd" d="M81.3603 128.416C107.357 128.416 128.431 107.341 128.431 81.3447C128.431 55.3481 107.357 34.2737 81.3603 34.2737C55.3637 34.2737 34.2893 55.3481 34.2893 81.3447C34.2893 107.341 55.3637 128.416 81.3603 128.416ZM81.3603 162.689C126.286 162.689 162.705 126.27 162.705 81.3447C162.705 36.4193 126.286 0 81.3603 0C36.4349 0 0.015625 36.4193 0.015625 81.3447C0.015625 126.27 36.4349 162.689 81.3603 162.689Z" fill="#09A16B"/>
<path d="M208.908 107.574V54.0808H259.711V107.574H248.536V63.186H220.083V107.574H208.908Z" fill="#393939"/>
<path d="M299.377 109.126C283.133 109.126 270.096 96.5026 270.096 80.8789C270.096 65.2553 283.133 52.5288 299.377 52.5288C315.621 52.5288 328.658 65.2553 328.658 80.8789C328.658 96.5026 315.621 109.126 299.377 109.126ZM299.377 99.0893C309.931 99.0893 317.898 90.9153 317.898 80.8789C317.898 70.7391 309.931 62.5652 299.377 62.5652C288.823 62.5652 280.856 70.7391 280.856 80.8789C280.856 90.9153 288.823 99.0893 299.377 99.0893Z" fill="#393939"/>
<path d="M331.784 120.507V98.4685H338.82C340.682 91.2257 344.718 74.1535 344.718 54.0808H384.863V98.4685H393.244V120.507H382.069V107.574H342.959V120.507H331.784ZM349.684 98.4685H373.585V64.6345H354.754C354.237 73.4293 351.65 89.3633 349.684 98.4685Z" fill="#393939"/>
<path d="M429.391 107.574V54.0808H440.566V73.6362L460.225 54.0808H474.193L448.636 78.1888L476.055 107.574H462.087L440.566 84.1899V107.574H429.391Z" fill="#393939"/>
<path d="M478.102 107.574L503.452 54.0808H514.73L540.079 107.574H528.698L509.142 65.5657L489.483 107.574H478.102Z" fill="#393939"/>
<path d="M596.539 52.5288C612.783 52.5288 625.82 65.2553 625.82 80.8789C625.82 96.5026 612.783 109.126 596.539 109.126C581.639 109.126 569.533 98.5719 567.568 84.8107H559.394V107.574H548.323V54.0808H559.394V75.7056H567.775C570.258 62.5652 582.157 52.5288 596.539 52.5288ZM596.539 99.0893C607.092 99.0893 615.059 90.9153 615.059 80.8789C615.059 70.7391 607.092 62.5652 596.539 62.5652C585.985 62.5652 578.018 70.7391 578.018 80.8789C578.018 90.9153 585.985 99.0893 596.539 99.0893Z" fill="#393939"/>
<path d="M673.326 54.0808H684.501V107.574H673.326V82.224C673.326 82.224 669.705 90.5014 656.668 90.5014C644.666 90.5014 635.146 82.9483 635.146 68.2559V54.0808H646.321V67.1177C646.321 75.7056 650.977 80.5685 658.323 80.5685C666.083 80.5685 673.326 75.4986 673.326 65.4623V54.0808Z" fill="#393939"/>
<path d="M212.533 177.244V174.876H213.914C214.69 174.876 215.335 174.754 215.849 174.51C216.372 174.258 216.805 173.91 217.148 173.468C217.5 173.017 217.802 172.489 218.055 171.885L218.515 170.775L208.974 149.147H211.694L219.787 167.716L227.258 149.147H229.938L220.369 172.643C219.981 173.563 219.539 174.37 219.043 175.065C218.556 175.751 217.915 176.288 217.121 176.676C216.327 177.055 215.28 177.244 213.981 177.244H212.533Z" fill="#393939"/>
<path d="M233.066 176.865V156.077H248.806V176.865H246.384V158.351H235.489V176.865H233.066Z" fill="#393939"/>
<path d="M255.566 184.661V156.077H257.907V160.042H258.191C258.48 159.42 258.877 158.784 259.382 158.134C259.887 157.475 260.555 156.921 261.385 156.469C262.224 156.018 263.28 155.793 264.552 155.793C266.266 155.793 267.764 156.244 269.045 157.146C270.336 158.039 271.337 159.293 272.05 160.909C272.772 162.515 273.133 164.387 273.133 166.525C273.133 168.673 272.772 170.554 272.05 172.169C271.337 173.784 270.336 175.043 269.045 175.945C267.764 176.847 266.275 177.298 264.579 177.298C263.325 177.298 262.274 177.073 261.426 176.622C260.587 176.17 259.905 175.616 259.382 174.957C258.868 174.289 258.471 173.64 258.191 173.008H257.975V184.661H255.566ZM257.948 166.485C257.948 168.163 258.196 169.652 258.692 170.951C259.197 172.241 259.919 173.256 260.857 173.996C261.805 174.727 262.951 175.092 264.295 175.092C265.675 175.092 266.839 174.713 267.787 173.955C268.743 173.188 269.469 172.155 269.966 170.856C270.471 169.557 270.724 168.1 270.724 166.485C270.724 164.888 270.476 163.448 269.979 162.167C269.492 160.886 268.77 159.871 267.814 159.122C266.857 158.364 265.684 157.985 264.295 157.985C262.942 157.985 261.791 158.351 260.844 159.081C259.896 159.803 259.175 160.805 258.678 162.086C258.191 163.358 257.948 164.824 257.948 166.485Z" fill="#393939"/>
<path d="M284.605 177.339C283.351 177.339 282.205 177.095 281.167 176.608C280.13 176.112 279.304 175.399 278.691 174.47C278.077 173.531 277.77 172.394 277.77 171.059C277.77 170.03 277.964 169.164 278.352 168.461C278.74 167.757 279.291 167.179 280.003 166.728C280.716 166.277 281.56 165.921 282.534 165.659C283.509 165.397 284.582 165.194 285.755 165.05C286.919 164.906 287.903 164.779 288.706 164.671C289.518 164.563 290.136 164.391 290.56 164.157C290.984 163.922 291.196 163.543 291.196 163.02V162.533C291.196 161.116 290.772 160.002 289.924 159.19C289.085 158.369 287.876 157.958 286.297 157.958C284.799 157.958 283.576 158.287 282.629 158.946C281.691 159.605 281.032 160.381 280.653 161.274L278.366 160.448C278.835 159.312 279.485 158.405 280.315 157.728C281.145 157.042 282.074 156.551 283.103 156.253C284.131 155.946 285.173 155.793 286.229 155.793C287.023 155.793 287.849 155.896 288.706 156.104C289.572 156.311 290.375 156.672 291.115 157.187C291.855 157.692 292.455 158.4 292.915 159.312C293.375 160.214 293.605 161.36 293.605 162.749V176.865H291.196V173.576H291.047C290.758 174.19 290.33 174.785 289.761 175.363C289.193 175.94 288.48 176.414 287.623 176.784C286.766 177.154 285.76 177.339 284.605 177.339ZM284.93 175.133C286.211 175.133 287.321 174.849 288.259 174.28C289.198 173.712 289.919 172.958 290.425 172.02C290.939 171.073 291.196 170.03 291.196 168.894V165.889C291.016 166.06 290.713 166.214 290.289 166.349C289.874 166.485 289.392 166.606 288.841 166.715C288.3 166.814 287.758 166.9 287.217 166.972C286.676 167.044 286.188 167.107 285.755 167.161C284.582 167.306 283.581 167.531 282.751 167.838C281.921 168.145 281.285 168.569 280.843 169.11C280.4 169.643 280.179 170.328 280.179 171.167C280.179 172.431 280.63 173.409 281.533 174.104C282.435 174.79 283.567 175.133 284.93 175.133Z" fill="#393939"/>
<path d="M300.395 176.865V156.077H308.583C310.793 156.077 312.535 156.555 313.807 157.511C315.088 158.468 315.729 159.758 315.729 161.382C315.729 162.618 315.372 163.606 314.659 164.346C313.947 165.086 312.99 165.609 311.79 165.916C312.593 166.051 313.338 166.345 314.023 166.796C314.718 167.247 315.282 167.842 315.715 168.582C316.148 169.322 316.365 170.206 316.365 171.235C316.365 172.318 316.094 173.283 315.553 174.131C315.011 174.979 314.249 175.647 313.265 176.134C312.282 176.622 311.118 176.865 309.774 176.865H300.395ZM302.695 174.632H309.774C311.046 174.632 312.052 174.307 312.792 173.658C313.532 172.999 313.902 172.124 313.902 171.032C313.902 169.868 313.55 168.939 312.846 168.244C312.151 167.54 311.217 167.188 310.044 167.188H302.695V174.632ZM302.695 165.05H308.732C309.67 165.05 310.482 164.906 311.168 164.617C311.853 164.328 312.381 163.922 312.751 163.399C313.13 162.866 313.315 162.244 313.306 161.531C313.306 160.512 312.891 159.722 312.061 159.163C311.231 158.594 310.071 158.31 308.583 158.31H302.695V165.05Z" fill="#393939"/>
<path d="M319.984 176.865V174.591H320.634C321.373 174.591 321.969 174.456 322.42 174.185C322.88 173.906 323.237 173.437 323.489 172.778C323.742 172.119 323.931 171.221 324.058 170.085C324.184 168.948 324.283 167.522 324.355 165.808L324.802 156.077H338.011V176.865H335.589V158.351H327.089L326.697 166.62C326.616 168.307 326.48 169.791 326.291 171.073C326.11 172.354 325.813 173.423 325.398 174.28C324.992 175.137 324.423 175.782 323.692 176.216C322.97 176.649 322.023 176.865 320.85 176.865H319.984Z" fill="#393939"/>
<path d="M357.283 176.865V158.31H351.558C350.069 158.319 348.937 158.63 348.161 159.244C347.394 159.857 347.01 160.773 347.01 161.991C347.01 163.209 347.376 164.125 348.106 164.739C348.837 165.343 349.902 165.645 351.3 165.645H357.959V167.919H351.3C349.866 167.919 348.648 167.689 347.646 167.229C346.654 166.769 345.896 166.097 345.373 165.212C344.849 164.328 344.588 163.254 344.588 161.991C344.588 160.719 344.854 159.645 345.386 158.77C345.927 157.886 346.717 157.218 347.755 156.767C348.801 156.307 350.069 156.077 351.558 156.077H359.583V176.865H357.283ZM343.275 176.865L349.257 166.525H351.896L345.914 176.865H343.275Z" fill="#393939"/>
<path d="M375.319 165.551V167.824H365.155V165.551H375.319ZM367.09 156.077V176.865H364.667V156.077H367.09ZM382.289 177.298C380.493 177.298 378.91 176.843 377.538 175.931C376.167 175.02 375.089 173.761 374.304 172.155C373.528 170.54 373.14 168.677 373.14 166.566C373.14 164.436 373.528 162.564 374.304 160.949C375.089 159.325 376.167 158.062 377.538 157.16C378.91 156.248 380.493 155.793 382.289 155.793C384.084 155.793 385.668 156.248 387.039 157.16C388.42 158.071 389.498 159.334 390.274 160.949C391.05 162.564 391.438 164.436 391.438 166.566C391.438 168.677 391.05 170.54 390.274 172.155C389.498 173.761 388.42 175.02 387.039 175.931C385.668 176.843 384.084 177.298 382.289 177.298ZM382.289 175.092C383.732 175.092 384.955 174.704 385.957 173.928C386.958 173.152 387.72 172.119 388.244 170.829C388.767 169.539 389.029 168.118 389.029 166.566C389.029 165.014 388.767 163.588 388.244 162.289C387.72 160.99 386.958 159.948 385.957 159.163C384.955 158.378 383.732 157.985 382.289 157.985C380.854 157.985 379.636 158.378 378.635 159.163C377.633 159.948 376.871 160.99 376.347 162.289C375.824 163.588 375.562 165.014 375.562 166.566C375.562 168.118 375.82 169.539 376.334 170.829C376.857 172.119 377.62 173.152 378.621 173.928C379.632 174.704 380.854 175.092 382.289 175.092Z" fill="#393939"/>
<path d="M424.375 174.591L423.996 182.834H421.614V176.865H419.016V174.591H424.375ZM397.496 156.077H399.906V174.591H408.432V156.077H410.841V174.591H419.367V156.077H421.777V176.865H397.496V156.077Z" fill="#393939"/>
<path d="M435.506 177.339C434.251 177.339 433.106 177.095 432.068 176.608C431.03 176.112 430.205 175.399 429.591 174.47C428.978 173.531 428.671 172.394 428.671 171.059C428.671 170.03 428.865 169.164 429.253 168.461C429.641 167.757 430.191 167.179 430.904 166.728C431.617 166.277 432.46 165.921 433.435 165.659C434.409 165.397 435.483 165.194 436.656 165.05C437.82 164.906 438.803 164.779 439.606 164.671C440.418 164.563 441.037 164.391 441.461 164.157C441.885 163.922 442.097 163.543 442.097 163.02V162.533C442.097 161.116 441.673 160.002 440.824 159.19C439.985 158.369 438.776 157.958 437.197 157.958C435.7 157.958 434.477 158.287 433.53 158.946C432.591 159.605 431.933 160.381 431.554 161.274L429.266 160.448C429.736 159.312 430.385 158.405 431.215 157.728C432.045 157.042 432.975 156.551 434.003 156.253C435.032 155.946 436.074 155.793 437.13 155.793C437.924 155.793 438.749 155.896 439.606 156.104C440.473 156.311 441.276 156.672 442.015 157.187C442.755 157.692 443.355 158.4 443.816 159.312C444.276 160.214 444.506 161.36 444.506 162.749V176.865H442.097V173.576H441.948C441.659 174.19 441.231 174.785 440.662 175.363C440.094 175.94 439.381 176.414 438.524 176.784C437.667 177.154 436.661 177.339 435.506 177.339ZM435.83 175.133C437.112 175.133 438.221 174.849 439.16 174.28C440.098 173.712 440.82 172.958 441.325 172.02C441.84 171.073 442.097 170.03 442.097 168.894V165.889C441.916 166.06 441.614 166.214 441.19 166.349C440.775 166.485 440.292 166.606 439.742 166.715C439.2 166.814 438.659 166.9 438.118 166.972C437.576 167.044 437.089 167.107 436.656 167.161C435.483 167.306 434.482 167.531 433.651 167.838C432.821 168.145 432.185 168.569 431.743 169.11C431.301 169.643 431.08 170.328 431.08 171.167C431.08 172.431 431.531 173.409 432.433 174.104C433.336 174.79 434.468 175.133 435.83 175.133Z" fill="#393939"/>
<path d="M463.801 176.865V158.31H458.076C456.587 158.319 455.455 158.63 454.679 159.244C453.912 159.857 453.528 160.773 453.528 161.991C453.528 163.209 453.894 164.125 454.625 164.739C455.355 165.343 456.42 165.645 457.819 165.645H464.477V167.919H457.819C456.384 167.919 455.166 167.689 454.164 167.229C453.172 166.769 452.414 166.097 451.891 165.212C451.367 164.328 451.106 163.254 451.106 161.991C451.106 160.719 451.372 159.645 451.904 158.77C452.446 157.886 453.235 157.218 454.273 156.767C455.319 156.307 456.587 156.077 458.076 156.077H466.101V176.865H463.801ZM449.793 176.865L455.775 166.525H458.414L452.432 176.865H449.793Z" fill="#393939"/>
<path d="M483.991 176.865V156.077H486.4V165.429H488.66L496.388 156.077H499.501L491.164 166.079L499.691 176.865H496.578L489.405 167.703H486.4V176.865H483.991Z" fill="#393939"/>
<path d="M511.247 177.298C509.452 177.298 507.864 176.843 506.483 175.931C505.112 175.02 504.038 173.761 503.262 172.155C502.486 170.54 502.098 168.677 502.098 166.566C502.098 164.436 502.486 162.564 503.262 160.949C504.038 159.325 505.112 158.062 506.483 157.16C507.864 156.248 509.452 155.793 511.247 155.793C513.043 155.793 514.626 156.248 515.998 157.16C517.369 158.071 518.443 159.334 519.219 160.949C520.004 162.564 520.396 164.436 520.396 166.566C520.396 168.677 520.008 170.54 519.232 172.155C518.457 173.761 517.378 175.02 515.998 175.931C514.626 176.843 513.043 177.298 511.247 177.298ZM511.247 175.092C512.691 175.092 513.914 174.704 514.915 173.928C515.917 173.152 516.675 172.119 517.189 170.829C517.712 169.539 517.974 168.118 517.974 166.566C517.974 165.014 517.712 163.588 517.189 162.289C516.675 160.99 515.917 159.948 514.915 159.163C513.914 158.378 512.691 157.985 511.247 157.985C509.813 157.985 508.59 158.378 507.58 159.163C506.578 159.948 505.816 160.99 505.292 162.289C504.778 163.588 504.521 165.014 504.521 166.566C504.521 168.118 504.778 169.539 505.292 170.829C505.816 172.119 506.578 173.152 507.58 173.928C508.581 174.704 509.804 175.092 511.247 175.092Z" fill="#393939"/>
<path d="M536.934 173.495L544.743 156.077H547.084L537.895 176.865H535.973L526.892 156.077H529.192L536.934 173.495ZM528.475 156.077V176.865H526.066V156.077H528.475ZM545.393 176.865V156.077H547.802V176.865H545.393Z" fill="#393939"/>
<path d="M554.611 176.865V156.077H570.352V176.865H567.929V158.351H557.034V176.865H554.611Z" fill="#393939"/>
<path d="M582.917 177.339C581.662 177.339 580.517 177.095 579.479 176.608C578.441 176.112 577.616 175.399 577.002 174.47C576.389 173.531 576.082 172.394 576.082 171.059C576.082 170.03 576.276 169.164 576.664 168.461C577.052 167.757 577.602 167.179 578.315 166.728C579.028 166.277 579.871 165.921 580.846 165.659C581.82 165.397 582.894 165.194 584.067 165.05C585.231 164.906 586.214 164.779 587.017 164.671C587.829 164.563 588.448 164.391 588.872 164.157C589.296 163.922 589.508 163.543 589.508 163.02V162.533C589.508 161.116 589.084 160.002 588.236 159.19C587.396 158.369 586.187 157.958 584.608 157.958C583.111 157.958 581.888 158.287 580.941 158.946C580.002 159.605 579.344 160.381 578.965 161.274L576.677 160.448C577.147 159.312 577.796 158.405 578.626 157.728C579.456 157.042 580.386 156.551 581.414 156.253C582.443 155.946 583.485 155.793 584.541 155.793C585.335 155.793 586.16 155.896 587.017 156.104C587.884 156.311 588.687 156.672 589.426 157.187C590.166 157.692 590.766 158.4 591.227 159.312C591.687 160.214 591.917 161.36 591.917 162.749V176.865H589.508V173.576H589.359C589.07 174.19 588.642 174.785 588.073 175.363C587.505 175.94 586.792 176.414 585.935 176.784C585.078 177.154 584.072 177.339 582.917 177.339ZM583.241 175.133C584.523 175.133 585.632 174.849 586.571 174.28C587.509 173.712 588.231 172.958 588.736 172.02C589.251 171.073 589.508 170.03 589.508 168.894V165.889C589.327 166.06 589.025 166.214 588.601 166.349C588.186 166.485 587.703 166.606 587.153 166.715C586.611 166.814 586.07 166.9 585.529 166.972C584.987 167.044 584.5 167.107 584.067 167.161C582.894 167.306 581.893 167.531 581.062 167.838C580.232 168.145 579.596 168.569 579.154 169.11C578.712 169.643 578.491 170.328 578.491 171.167C578.491 172.431 578.942 173.409 579.844 174.104C580.747 174.79 581.879 175.133 583.241 175.133Z" fill="#393939"/>
<path d="M612.741 165.348V167.621H600.52V165.348H612.741ZM601.115 156.077V176.865H598.706V156.077H601.115ZM614.514 156.077V176.865H612.105V156.077H614.514Z" fill="#393939"/>
<path d="M623.716 173.441L634.692 156.077H637.575V176.865H635.166V159.501L624.23 176.865H621.307V156.077H623.716V173.441Z" fill="#393939"/>
<path d="M656.822 176.865V158.31H651.097C649.609 158.319 648.476 158.63 647.7 159.244C646.934 159.857 646.55 160.773 646.55 161.991C646.55 163.209 646.915 164.125 647.646 164.739C648.377 165.343 649.442 165.645 650.84 165.645H657.499V167.919H650.84C649.406 167.919 648.188 167.689 647.186 167.229C646.194 166.769 645.436 166.097 644.912 165.212C644.389 164.328 644.127 163.254 644.127 161.991C644.127 160.719 644.394 159.645 644.926 158.77C645.467 157.886 646.257 157.218 647.294 156.767C648.341 156.307 649.609 156.077 651.097 156.077H659.123V176.865H656.822ZM642.815 176.865L648.797 166.525H651.436L645.454 176.865H642.815Z" fill="#393939"/>
</svg>
